<svg width="37" height="36" viewBox="0 0 37 36" fill="none" xmlns="http://www.w3.org/2000/svg">
<path d="M4.83337 4.5V31.5H31.8334" stroke="white" stroke-width="2" stroke-linecap="round" stroke-linejoin="round"/>
<path d="M15.3334 15H12.3334C11.5049 15 10.8334 15.6716 10.8334 16.5V24C10.8334 24.8284 11.5049 25.5 12.3334 25.5H15.3334C16.1618 25.5 16.8334 24.8284 16.8334 24V16.5C16.8334 15.6716 16.1618 15 15.3334 15Z" stroke="white" stroke-width="2" stroke-linecap="round" stroke-linejoin="round"/>
<path d="M27.3334 7.5H24.3334C23.5049 7.5 22.8334 8.17157 22.8334 9V24C22.8334 24.8284 23.5049 25.5 24.3334 25.5H27.3334C28.1618 25.5 28.8334 24.8284 28.8334 24V9C28.8334 8.17157 28.1618 7.5 27.3334 7.5Z" stroke="white" stroke-width="2" stroke-linecap="round" stroke-linejoin="round"/>
</svg>
