<svg width="29" height="30" viewBox="0 0 29 30" fill="none" xmlns="http://www.w3.org/2000/svg">
<mask id="mask0_14_307" style="mask-type:luminance" maskUnits="userSpaceOnUse" x="0" y="0" width="29" height="30">
<path d="M28.2232 0.842773H0V29.1574H28.2232V0.842773Z" fill="white"/>
</mask>
<g mask="url(#mask0_14_307)">
<mask id="mask1_14_307" style="mask-type:luminance" maskUnits="userSpaceOnUse" x="0" y="0" width="29" height="30">
<path d="M28.2232 0.842773H0V29.1574H28.2232V0.842773Z" fill="white"/>
</mask>
<g mask="url(#mask1_14_307)">
<path d="M18.8408 10.1702H21.7395C22.2452 10.1702 22.7302 10.419 23.0878 10.8618C23.4454 11.3047 23.6465 11.9052 23.6465 12.5315V24.3385C23.6465 24.9647 23.4454 25.5653 23.0878 26.0082C22.7302 26.4509 22.2452 26.6997 21.7395 26.6997H6.48366C5.97786 26.6997 5.49283 26.4509 5.13524 26.0082C4.77757 25.5653 4.57666 24.9647 4.57666 24.3385V12.5315C4.57666 11.9052 4.77757 11.3047 5.13524 10.8618C5.49287 10.419 5.97786 10.1702 6.48366 10.1702H8.61948" stroke="white" stroke-width="1.5" stroke-linecap="round" stroke-linejoin="round"/>
<path d="M13.9701 14.6511C13.9247 14.8655 13.6216 14.8708 13.5687 14.6581L12.7273 11.2731C12.7101 11.204 12.6586 11.1486 12.5911 11.1266L10.2942 10.3776C10.1064 10.3164 10.1038 10.0508 10.2903 9.98584L12.5939 9.18337C12.6598 9.16039 12.7097 9.10546 12.7263 9.03742L13.5306 5.75115C13.5824 5.53968 13.8829 5.5419 13.9315 5.75414L14.6835 9.03698C14.6992 9.1053 14.7483 9.161 14.8139 9.1849L17.1169 10.0251C17.3024 10.0928 17.2959 10.3582 17.1074 10.4168L14.8241 11.1261C14.7528 11.1483 14.699 11.2074 14.6835 11.2806L13.9701 14.6511Z" fill="white"/>
<path d="M16.4369 8.06631C16.3794 8.27778 16.0765 8.2658 16.0358 8.05041L15.5864 5.67235C15.5732 5.60229 15.5249 5.54408 15.4587 5.51824L13.9035 4.91073C13.7195 4.83885 13.7319 4.5735 13.9219 4.51934L15.5448 4.05611C15.6119 4.03698 15.6648 3.98496 15.6854 3.91798L16.3719 1.67412C16.4356 1.46597 16.7354 1.48539 16.7719 1.70005L17.1631 4.00223C17.1748 4.07132 17.2207 4.12973 17.2849 4.1574L18.8437 4.82938C19.025 4.90753 19.0035 5.17215 18.812 5.21984L17.2119 5.61819C17.1395 5.63623 17.0824 5.69217 17.0628 5.76441L16.4369 8.06631Z" fill="white"/>
<path d="M10.7036 8.2222C10.6461 8.43371 10.3431 8.42169 10.3024 8.2063L10.1486 7.39189C10.1353 7.32191 10.0871 7.26367 10.0209 7.23782L9.50152 7.03493C9.31751 6.96305 9.32997 6.69778 9.51987 6.64354L10.0664 6.48756C10.1336 6.46843 10.1865 6.41641 10.2069 6.34943L10.4417 5.5821C10.5054 5.37391 10.8053 5.39337 10.8417 5.60799L10.9751 6.39303C10.9869 6.46212 11.0327 6.52053 11.0969 6.54816L11.6238 6.77532C11.8051 6.85347 11.7837 7.11809 11.5921 7.16578L11.0645 7.29712C10.992 7.31516 10.935 7.3711 10.9153 7.44334L10.7036 8.2222Z" fill="white"/>
<path d="M12.3191 16.4351L16.5017 19.1326L12.3191 21.8302V16.4351Z" fill="white" stroke="white" stroke-width="1.5" stroke-linecap="round" stroke-linejoin="round"/>
</g>
</g>
</svg>
