<svg width="37" height="36" viewBox="0 0 37 36" fill="none" xmlns="http://www.w3.org/2000/svg">
<path d="M21.6666 13.5C21.6666 14.2956 21.3506 15.0587 20.7879 15.6213C20.2253 16.1839 19.4623 16.5 18.6666 16.5H9.66663L3.66663 22.5V6C3.66663 4.35 5.01663 3 6.66663 3H18.6666C19.4623 3 20.2253 3.31607 20.7879 3.87868C21.3506 4.44129 21.6666 5.20435 21.6666 6V13.5Z" stroke="white" stroke-width="2" stroke-linecap="round" stroke-linejoin="round"/>
<path d="M27.6666 13.5H30.6666C31.4623 13.5 32.2253 13.8161 32.7879 14.3787C33.3506 14.9413 33.6666 15.7044 33.6666 16.5V33L27.6666 27H18.6666C17.871 27 17.1079 26.6839 16.5453 26.1213C15.9827 25.5587 15.6666 24.7956 15.6666 24V22.5" stroke="white" stroke-width="2" stroke-linecap="round" stroke-linejoin="round"/>
</svg>
